<svg width="299" height="225" viewBox="0 0 299 225" fill="none" xmlns="http://www.w3.org/2000/svg">
<g filter="url(#filter0_d_27_243)">
<path d="M252.554 98.0941L223.221 94.4779L224.828 68.7625H252.554V98.0941Z" fill="#FFB6B6"/>
<path d="M269.245 129.516C268.784 129.515 268.334 129.38 267.949 129.126C267.565 128.872 267.263 128.512 267.081 128.088L263.007 118.586L275.08 118.628L283.375 109.856L287.354 119.144C287.595 119.713 287.603 120.354 287.378 120.93C287.152 121.505 286.71 121.969 286.146 122.222L270.201 129.312C269.9 129.446 269.574 129.516 269.245 129.516Z" fill="#E6E6E6"/>
<path d="M273.246 119.826C273.146 119.826 273.045 119.823 272.945 119.817L263.244 119.268L262.981 118.679L263.165 118.597L283.342 109.613L283.605 110.202L277.432 117.829C276.926 118.452 276.288 118.955 275.564 119.3C274.84 119.645 274.049 119.825 273.246 119.826Z" fill="#CCCCCC"/>
<path d="M256.162 31.8506L227.522 32.2086C226.984 32.208 226.469 31.9942 226.089 31.6141C225.709 31.234 225.495 30.7187 225.494 30.1811V20.7187C225.494 16.7154 227.085 12.876 229.915 10.0452C232.746 7.21446 236.586 5.62415 240.59 5.62415C244.593 5.62415 248.433 7.21446 251.264 10.0452C254.095 12.876 255.685 16.7154 255.685 20.7187L258.19 29.8231C258.189 30.3607 257.975 30.876 257.595 31.2561C257.215 31.6362 256.7 31.85 256.162 31.8506H256.162Z" fill="#2F2E41"/>
<path d="M270.184 115.983C269.707 115.552 269.331 115.021 269.081 114.429C268.832 113.836 268.716 113.197 268.74 112.554C268.765 111.912 268.93 111.283 269.225 110.711C269.519 110.14 269.935 109.64 270.443 109.246L265.46 94.4375L273.311 96.512L276.84 110.256C277.448 111.154 277.705 112.244 277.561 113.319C277.418 114.393 276.884 115.377 276.063 116.085C275.241 116.792 274.188 117.172 273.104 117.153C272.02 117.135 270.981 116.718 270.184 115.983V115.983Z" fill="#FFB6B6"/>
<path d="M236.225 211.241L230.346 210.287L231.228 187.16L239.904 188.567L236.225 211.241Z" fill="#FFB6B6"/>
<path d="M265.523 198.98L260.206 201.662L246.123 181.227L253.97 177.268L265.523 198.98Z" fill="#FFB6B6"/>
<path d="M240.465 32.1104C246.238 32.1104 250.919 27.4303 250.919 21.6571C250.919 15.8839 246.238 11.2038 240.465 11.2038C234.691 11.2038 230.011 15.8839 230.011 21.6571C230.011 27.4303 234.691 32.1104 240.465 32.1104Z" fill="#FFB8B8"/>
<path d="M248.742 191.549L224.259 129.124C215.497 105.19 223.326 88.695 223.406 88.5315L223.446 88.4511L223.53 88.4206C224.535 92.3333 247.331 92.067 252.555 86.04C255.604 88.6011 259.662 94.6312 260.531 101.837C261.44 109.568 260.751 117.403 258.507 124.856L248.863 157.547L260.794 184.424L248.742 191.549Z" fill="#2F2E41"/>
<path d="M236.936 152.828L228.096 197.651L239.869 199.871L247.277 161.072L236.936 152.828Z" fill="#2F2E41"/>
<path d="M224.025 76.3967C225.908 76.8998 244.525 84.5709 253.358 76.7985L260.289 42.5794L251.985 39.9604L249.087 36.4368C248.774 36.0547 248.378 35.7481 247.929 35.54C247.481 35.3318 246.991 35.2274 246.497 35.2345L236.195 35.3723C235.74 35.3789 235.29 35.4797 234.875 35.6682C234.461 35.8568 234.089 36.1291 233.784 36.468L230.485 40.1476L223.031 41.8821L224.025 76.3967Z" fill="#00D1FF"/>
<path d="M257.129 45.2485L259.385 42.2435C259.385 42.2435 263.52 43.3299 265.621 49.2545C267.721 55.179 276.329 102.514 276.329 102.514L267.06 106.818L254.508 64.9834L257.129 45.2485Z" fill="#00D1FF"/>
<path d="M182.854 101.62C182.941 100.983 183.168 100.373 183.516 99.8331C183.865 99.2931 184.328 98.8362 184.872 98.4945C185.417 98.1528 186.03 97.9346 186.668 97.8553C187.305 97.776 187.953 97.8376 188.565 98.0356L197.985 85.57L200.699 93.2228L191.336 103.887C190.937 104.894 190.181 105.719 189.213 106.206C188.245 106.693 187.132 106.807 186.086 106.527C185.039 106.248 184.132 105.593 183.536 104.689C182.94 103.784 182.697 102.692 182.853 101.62H182.854Z" fill="#FFB6B6"/>
<path d="M226.343 44.5852L223.221 41.8417C223.221 41.8417 219.951 42.6666 217.851 48.5911C215.75 54.5157 188.936 94.2359 188.936 94.2359L198.205 98.5392L228.964 64.3185L226.343 44.5852Z" fill="#00D1FF"/>
<path d="M251.358 20.9676H236.746C236.472 20.9673 236.207 20.8669 236.001 20.6853C235.795 20.5036 235.663 20.2531 235.628 19.9808L235.439 18.4676C235.421 18.3222 235.356 18.1868 235.254 18.0816C235.151 17.9765 235.018 17.9074 234.873 17.8847C234.728 17.862 234.58 17.887 234.451 17.9559C234.321 18.0248 234.218 18.1339 234.156 18.2667L233.198 20.3175C233.107 20.5113 232.962 20.6753 232.782 20.7903C232.601 20.9054 232.391 20.9667 232.177 20.9672H229.958C229.659 20.9676 229.373 20.8495 229.162 20.6389C228.95 20.4282 228.831 20.1422 228.831 19.8438C228.831 19.8069 228.833 19.77 228.836 19.7333L229.712 10.5927C229.73 10.3972 229.799 10.2099 229.912 10.0492C230.025 9.88839 230.177 9.75958 230.354 9.67533C237.046 6.55172 243.832 6.55574 250.524 9.68739C250.693 9.7672 250.841 9.88806 250.952 10.039C251.063 10.19 251.135 10.3663 251.161 10.5521L252.472 19.6806C252.495 19.8404 252.484 20.0033 252.438 20.1582C252.393 20.3131 252.314 20.4565 252.209 20.5784C252.103 20.7004 251.972 20.7982 251.825 20.8651C251.678 20.9321 251.519 20.9666 251.357 20.9664L251.358 20.9676Z" fill="#2F2E41"/>
<path d="M15.6594 7.23085C15.1513 7.23032 14.6636 7.43133 14.3035 7.78979C13.9433 8.14826 13.7401 8.63491 13.7383 9.14303L13.2661 214.239C13.2656 214.747 13.4666 215.235 13.8251 215.595C14.1836 215.955 14.6703 216.158 15.1784 216.16L180.415 216.54C180.923 216.54 181.41 216.339 181.771 215.981C182.131 215.622 182.334 215.136 182.336 214.627L182.808 9.53157C182.808 9.02338 182.607 8.53573 182.249 8.1756C181.89 7.81546 181.403 7.61226 180.895 7.61056L15.6594 7.23085Z" fill="#E6E6E6"/>
<path d="M21.7811 13.3788C21.273 13.3783 20.7853 13.5793 20.4252 13.9378C20.0651 14.2962 19.8618 14.7829 19.86 15.291L19.418 208.119C19.4174 208.627 19.6185 209.115 19.9769 209.475C20.3354 209.835 20.8221 210.039 21.3303 210.04L174.298 210.392C174.806 210.393 175.294 210.192 175.654 209.833C176.014 209.475 176.218 208.988 176.219 208.48L176.661 15.6518C176.662 15.1436 176.461 14.656 176.102 14.2959C175.744 13.9357 175.257 13.7325 174.749 13.7308L21.7811 13.3788Z" fill="white"/>
<path d="M154.428 97.1125L41.7154 96.8534C40.9586 96.8429 40.2365 96.5344 39.7057 95.995C39.1749 95.4555 38.8781 94.7285 38.8799 93.9717C38.8816 93.2149 39.1817 92.4893 39.715 91.9523C40.2483 91.4153 40.9718 91.1102 41.7286 91.1032L154.441 91.3627C155.198 91.3733 155.92 91.6817 156.451 92.2212C156.981 92.7606 157.278 93.4876 157.276 94.2444C157.275 95.0012 156.975 95.7268 156.441 96.2638C155.908 96.8008 155.184 97.1059 154.428 97.1129V97.1125Z" fill="#E6E6E6"/>
<path d="M155.519 43.5405L80.7419 43.3686C79.6883 43.3661 78.8372 42.0768 78.8408 40.4888C78.8444 38.9009 79.7015 37.6155 80.7551 37.618L155.533 37.7899C156.586 37.7923 157.437 39.0817 157.434 40.6696C157.43 42.2576 156.573 43.5445 155.519 43.5405Z" fill="#E6E6E6"/>
<path d="M155.481 60.0249L80.7038 59.8529C79.6502 59.8505 78.7991 58.5611 78.8027 56.9732C78.8064 55.3853 79.6635 54.0999 80.717 54.1023L155.494 54.2743C156.548 54.2767 157.399 55.5661 157.396 57.154C157.392 58.7419 156.535 60.0273 155.481 60.0249Z" fill="#E6E6E6"/>
<path d="M154.384 115.705L41.6714 115.446C40.9147 115.435 40.1925 115.127 39.6617 114.588C39.1309 114.048 38.8342 113.321 38.8359 112.564C38.8377 111.807 39.1378 111.082 39.6711 110.545C40.2044 110.008 40.9279 109.703 41.6847 109.696L154.397 109.955C155.16 109.948 155.894 110.244 156.438 110.778C156.982 111.312 157.292 112.041 157.299 112.803C157.306 113.566 157.01 114.3 156.476 114.844C155.941 115.389 155.213 115.698 154.45 115.705C154.428 115.705 154.406 115.705 154.384 115.705Z" fill="#E6E6E6"/>
<path d="M154.344 134.298L41.6314 134.038C40.8746 134.028 40.1525 133.719 39.6217 133.18C39.0909 132.64 38.7942 131.913 38.7959 131.157C38.7977 130.4 39.0977 129.674 39.631 129.137C40.1643 128.6 40.8878 128.295 41.6447 128.288L154.357 128.548C154.735 128.543 155.11 128.614 155.461 128.755C155.812 128.895 156.131 129.104 156.401 129.369C156.671 129.633 156.886 129.948 157.035 130.296C157.183 130.644 157.261 131.018 157.264 131.395C157.268 131.773 157.197 132.148 157.055 132.499C156.914 132.849 156.705 133.169 156.44 133.438C156.175 133.708 155.859 133.923 155.511 134.07C155.163 134.218 154.789 134.295 154.411 134.298C154.389 134.298 154.366 134.298 154.344 134.298V134.298Z" fill="#E6E6E6"/>
<path d="M154.3 152.891L41.5875 152.631C40.8307 152.621 40.1086 152.312 39.5777 151.773C39.0469 151.233 38.7502 150.506 38.752 149.75C38.7537 148.993 39.0538 148.267 39.5871 147.73C40.1204 147.193 40.8439 146.888 41.6007 146.881L154.313 147.141C155.075 147.134 155.808 147.431 156.352 147.965C156.895 148.499 157.205 149.227 157.212 149.989C157.219 150.751 156.924 151.484 156.39 152.028C155.857 152.573 155.129 152.883 154.367 152.891C154.345 152.891 154.322 152.891 154.3 152.891Z" fill="#E6E6E6"/>
<path d="M98.8047 170.68L41.5445 170.42C40.7877 170.41 40.0656 170.101 39.5348 169.562C39.004 169.022 38.7072 168.295 38.709 167.539C38.7107 166.782 39.0108 166.056 39.5441 165.519C40.0774 164.982 40.8009 164.677 41.5577 164.67L98.8179 164.93C99.5797 164.924 100.313 165.22 100.856 165.754C101.399 166.288 101.708 167.016 101.716 167.778C101.723 168.539 101.427 169.273 100.894 169.817C100.361 170.361 99.6341 170.671 98.8723 170.68C98.8498 170.68 98.8272 170.68 98.8047 170.68Z" fill="#E6E6E6"/>
<path d="M98.7622 189.273L41.502 189.013C40.7452 189.003 40.0231 188.694 39.4923 188.155C38.9615 187.615 38.6648 186.888 38.6665 186.132C38.6683 185.375 38.9683 184.649 39.5016 184.112C40.0349 183.575 40.7584 183.27 41.5153 183.263L98.7755 183.523C99.5372 183.517 100.27 183.813 100.813 184.347C101.357 184.881 101.666 185.609 101.673 186.371C101.68 187.132 101.385 187.866 100.852 188.41C100.319 188.954 99.5915 189.264 98.8298 189.273C98.8072 189.273 98.7847 189.273 98.7622 189.273Z" fill="#E6E6E6"/>
<path d="M130.799 21.5908V7.91025C130.821 6.89406 130.643 5.88343 130.275 4.93604C129.907 3.98865 129.355 3.12307 128.653 2.38872C127.95 1.65436 127.109 1.06561 126.179 0.656077C125.249 0.246547 124.247 0.0242574 123.231 0.00190276C122.214 -0.0204519 121.204 0.157569 120.256 0.525793C119.309 0.894017 118.443 1.44523 117.709 2.14798C116.974 2.85072 116.386 3.69122 115.976 4.6215C115.566 5.55178 115.344 6.55361 115.322 7.56979H117.025C117.086 6.0101 117.748 4.5344 118.872 3.45158C119.996 2.36876 121.496 1.76275 123.057 1.76042H123.145C124.748 1.7861 126.275 2.44688 127.391 3.59761C128.507 4.74833 129.12 6.29488 129.096 7.89751V21.7C129.082 22.7649 128.649 23.7815 127.892 24.5301C127.134 25.2787 126.112 25.6991 125.047 25.7005H124.997C123.922 25.6855 122.897 25.2443 122.147 24.4738C121.397 23.7033 120.983 22.6665 120.998 21.5914L121.007 8.00292C121.005 7.46194 121.218 6.94242 121.6 6.55864C121.981 6.17486 122.499 5.95826 123.04 5.95649C123.581 5.95472 124.101 6.16792 124.484 6.5492C124.868 6.93047 125.085 7.44859 125.087 7.98957V11.9375C125.087 12.1633 125.176 12.3799 125.336 12.5396C125.496 12.6993 125.712 12.789 125.938 12.789C126.164 12.789 126.381 12.6993 126.54 12.5396C126.7 12.3799 126.79 12.1633 126.79 11.9375V7.97607C126.789 7.48462 126.691 6.99815 126.502 6.54444C126.314 6.09072 126.037 5.67864 125.689 5.33173C125.341 4.98482 124.928 4.70988 124.473 4.52259C124.019 4.3353 123.532 4.23934 123.041 4.24019C122.549 4.24103 122.063 4.33867 121.609 4.52752C121.155 4.71637 120.743 4.99274 120.396 5.34085C120.049 5.68895 119.774 6.10198 119.587 6.55634C119.4 7.0107 119.304 7.4975 119.305 7.98895L119.296 21.5805C119.279 23.1055 119.868 24.5748 120.933 25.6662C121.998 26.7576 123.453 27.3819 124.978 27.4021H125.049C126.562 27.3998 128.014 26.8021 129.09 25.7382C130.166 24.6742 130.781 23.2296 130.8 21.7164C130.799 21.6725 130.799 21.6281 130.799 21.5908Z" fill="#0094FF"/>
<path d="M154.107 177.145C154.11 179.41 153.706 181.658 152.914 183.78C152.554 184.753 152.113 185.693 151.596 186.591C149.931 189.495 147.529 191.908 144.633 193.587C141.736 195.265 138.448 196.149 135.101 196.149C131.753 196.149 128.465 195.265 125.568 193.587C122.672 191.908 120.27 189.495 118.605 186.591C118.437 186.299 118.277 186.002 118.126 185.701C116.834 183.139 116.139 180.317 116.094 177.447C116.048 174.578 116.653 171.735 117.863 169.133C119.073 166.53 120.857 164.236 123.08 162.421C125.303 160.606 127.909 159.319 130.701 158.655C133.493 157.991 136.4 157.968 139.202 158.587C142.004 159.207 144.63 160.453 146.882 162.232C149.134 164.011 150.954 166.277 152.205 168.86C153.457 171.442 154.107 174.275 154.107 177.145H154.107Z" fill="#E4E4E4"/>
<path d="M136.089 180.353C138.095 180.353 139.722 178.727 139.722 176.72C139.722 174.713 138.095 173.087 136.089 173.087C134.082 173.087 132.455 174.713 132.455 176.72C132.455 178.727 134.082 180.353 136.089 180.353Z" fill="#0094FF"/>
<path d="M118.126 185.701C119.727 183.971 121.867 181.225 123.874 183.209C124.882 184.146 126.458 186.465 127.967 184.949L139.753 173.164C139.974 172.945 140.238 172.773 140.527 172.657C140.817 172.541 141.126 172.485 141.438 172.49C141.75 172.496 142.057 172.564 142.342 172.69C142.628 172.816 142.885 172.997 143.099 173.224L152.914 183.78C152.554 184.753 152.113 185.693 151.596 186.591H118.605L118.126 185.701Z" fill="#3F3D56"/>
<path d="M68.9197 48.1662C68.9225 50.4316 68.5185 52.6791 67.7269 54.8017C67.3674 55.7739 66.9265 56.7141 66.4087 57.6121C64.7442 60.5164 62.3423 62.9297 59.4459 64.6081C56.5494 66.2864 53.2612 67.1703 49.9136 67.1703C46.5659 67.1703 43.2777 66.2864 40.3812 64.6081C37.4848 62.9297 35.0829 60.5164 33.4184 57.6121C33.2499 57.32 33.0901 57.0235 32.939 56.7227C31.6471 54.16 30.9522 51.3381 30.9067 48.4686C30.8611 45.599 31.466 42.7564 32.676 40.1541C33.8859 37.5517 35.6696 35.257 37.893 33.4424C40.1165 31.6277 42.722 30.34 45.5142 29.676C48.3064 29.012 51.2127 28.9889 54.0151 29.6084C56.8175 30.2279 59.4432 31.4739 61.6952 33.253C63.9472 35.0321 65.7671 37.2981 67.0183 39.8809C68.2695 42.4637 68.9196 45.2963 68.9197 48.1662H68.9197Z" fill="#E4E4E4"/>
<path d="M50.9016 51.3746C52.9084 51.3746 54.5352 49.7479 54.5352 47.7413C54.5352 45.7346 52.9084 44.1079 50.9016 44.1079C48.8949 44.1079 47.2681 45.7346 47.2681 47.7413C47.2681 49.7479 48.8949 51.3746 50.9016 51.3746Z" fill="#0094FF"/>
<path d="M32.939 56.7228C34.5399 54.9927 36.6801 52.246 38.6873 54.2307C39.6947 55.1668 41.2713 57.4867 42.7804 55.9701L54.5655 44.1857C54.7874 43.9667 55.0508 43.7942 55.3403 43.6784C55.6297 43.5626 55.9394 43.5058 56.2511 43.5114C56.5629 43.517 56.8703 43.5848 57.1555 43.7109C57.4406 43.837 57.6977 44.0188 57.9115 44.2456L67.7268 54.8018C67.3673 55.774 66.9264 56.7141 66.4086 57.6121H33.4183L32.939 56.7228Z" fill="#3F3D56"/>
<path d="M124.371 24.1624C125.481 24.1624 126.381 23.2629 126.381 22.1534C126.381 21.0438 125.481 20.1443 124.371 20.1443C123.262 20.1443 122.362 21.0438 122.362 22.1534C122.362 23.2629 123.262 24.1624 124.371 24.1624Z" fill="#0094FF"/>
<path d="M239.243 216.626H235.419L234.736 213.016L232.988 216.626H222.846C222.36 216.626 221.886 216.471 221.495 216.183C221.103 215.894 220.814 215.489 220.669 215.025C220.525 214.561 220.532 214.062 220.691 213.603C220.849 213.143 221.15 212.746 221.55 212.47L229.65 206.877V203.227L238.169 203.735L239.243 216.626Z" fill="#2F2E41"/>
<path d="M273.129 207.676L269.916 209.751L267.384 207.088L267.874 211.069L259.354 216.571C258.945 216.834 258.463 216.961 257.978 216.931C257.493 216.902 257.03 216.718 256.656 216.406C256.283 216.095 256.019 215.672 255.903 215.2C255.787 214.728 255.825 214.231 256.011 213.782L259.781 204.69L257.801 201.624L265.233 197.43L273.129 207.676Z" fill="#2F2E41"/>
</g>
<defs>
<filter id="filter0_d_27_243" x="-4" y="0" width="307" height="225" filterUnits="userSpaceOnUse" color-interpolation-filters="sRGB">
<feFlood flood-opacity="0" result="BackgroundImageFix"/>
<feColorMatrix in="SourceAlpha" type="matrix" values="0 0 0 0 0 0 0 0 0 0 0 0 0 0 0 0 0 0 127 0" result="hardAlpha"/>
<feOffset dy="4"/>
<feGaussianBlur stdDeviation="2"/>
<feComposite in2="hardAlpha" operator="out"/>
<feColorMatrix type="matrix" values="0 0 0 0 0 0 0 0 0 0 0 0 0 0 0 0 0 0 0.25 0"/>
<feBlend mode="normal" in2="BackgroundImageFix" result="effect1_dropShadow_27_243"/>
<feBlend mode="normal" in="SourceGraphic" in2="effect1_dropShadow_27_243" result="shape"/>
</filter>
</defs>
</svg>
