<svg width="751" height="527" viewBox="0 0 751 527" fill="none" xmlns="http://www.w3.org/2000/svg">
<path d="M383.253 525.883C405.823 525.883 424.119 507.65 424.119 485.158C424.119 462.666 405.823 444.433 383.253 444.433C360.683 444.433 342.386 462.666 342.386 485.158C342.386 507.65 360.683 525.883 383.253 525.883Z" fill="#0094FF"/>
<path d="M627.393 523.595C650.256 516.753 674.562 509.618 692.693 493.352C708.896 478.816 719.835 456.62 713.122 434.821C706.424 413.067 686.36 398.562 665.644 391.347C653.895 387.255 641.603 384.985 629.316 383.202C615.959 381.263 602.543 379.675 589.133 378.147C534.835 371.958 480.333 368.177 425.627 366.805C398.633 366.127 371.644 366.144 344.647 366.534C320.536 366.883 295.143 366.874 272.775 356.662C255.382 348.721 239.595 334.273 234.749 315.288C229.154 293.372 239.473 271.054 254.276 255.181C262.078 246.815 271.198 239.773 280.605 233.298C290.81 226.274 301.372 219.747 312.162 213.655C333.413 201.661 355.631 191.454 378.585 183.139C389.908 179.036 401.4 175.496 412.991 172.23C422.779 169.473 432.597 166.711 442.056 162.954C460.342 155.692 477.735 143.389 482.385 123.22C486.792 104.104 479.362 83.353 466.336 69.1525C451.266 52.7235 428.543 45.5216 406.759 44.3563C382.303 43.0481 358.41 49.1477 335.423 56.8889C310.906 65.1454 286.917 74.639 261.882 81.3267C237.056 87.9519 211.75 92.6396 186.194 95.3472C173.683 96.6747 160.794 98.1738 148.209 97.1574C137.661 96.3057 127.167 93.2144 119.394 85.7548C112.729 79.3585 108.758 70.5679 110.123 61.2911C110.371 59.6062 112.94 60.3225 112.693 61.9972C111.031 73.2896 118.734 83.6953 128.226 89.0256C139.196 95.1859 152.546 95.1943 164.759 94.4898C191.242 92.8959 217.545 89.1067 243.396 83.1615C268.798 77.3798 293.292 69.1146 317.759 60.2855C340.996 51.9001 364.753 43.716 389.578 41.8997C411.119 40.3238 433.778 43.451 452.543 54.6689C469.036 64.5279 481.163 80.9694 485.028 99.8365C488.804 118.273 483.574 136.83 469.569 149.695C455.069 163.016 435.187 168.711 416.659 173.957C393.158 180.609 370.162 188.386 347.903 198.483C325.34 208.689 303.702 220.812 283.227 234.718C263.463 248.177 243.958 265.111 237.708 289.122C234.796 300.306 235.334 312.169 240.205 322.733C244.537 332.126 251.672 340.027 259.983 346.122C279.813 360.663 304.805 363.648 328.758 363.945C355.661 364.279 382.564 363.374 409.475 363.814C464.318 364.711 519.05 368.038 573.669 373.794C587.355 375.238 601.024 376.834 614.676 378.581C626.955 380.154 639.275 381.716 651.348 384.508C672.814 389.473 693.702 399.02 707.044 417.157C712.965 425.019 716.634 434.335 717.657 444.112C718.591 454.314 716.085 464.536 711.456 473.612C701.211 493.7 682.02 506.477 661.64 514.872C650.724 519.368 639.402 522.774 628.101 526.156C626.455 526.649 625.752 524.086 627.393 523.595L627.393 523.595Z" fill="#F2F2F2"/>
<path d="M111.844 82.7778C123.62 82.7778 133.166 73.2649 133.166 61.53C133.166 49.7952 123.62 40.2822 111.844 40.2822C100.068 40.2822 90.5223 49.7952 90.5223 61.53C90.5223 73.2649 100.068 82.7778 111.844 82.7778Z" fill="#F2F2F2"/>
<path d="M259.764 123.06C271.54 123.06 281.086 113.547 281.086 101.813C281.086 90.0777 271.54 80.5647 259.764 80.5647C247.988 80.5647 238.442 90.0777 238.442 101.813C238.442 113.547 247.988 123.06 259.764 123.06Z" fill="#F2F2F2"/>
<path d="M385.029 42.4956C396.805 42.4956 406.351 32.9826 406.351 21.2478C406.351 9.51297 396.805 0 385.029 0C373.254 0 363.708 9.51297 363.708 21.2478C363.708 32.9826 373.254 42.4956 385.029 42.4956Z" fill="#F2F2F2"/>
<path d="M463.209 132.799C474.985 132.799 484.531 123.286 484.531 111.551C484.531 99.8162 474.985 90.3032 463.209 90.3032C451.434 90.3032 441.887 99.8162 441.887 111.551C441.887 123.286 451.434 132.799 463.209 132.799Z" fill="#F2F2F2"/>
<path d="M357.489 237.267C369.264 237.267 378.811 227.754 378.811 216.019C378.811 204.284 369.264 194.771 357.489 194.771C345.713 194.771 336.167 204.284 336.167 216.019C336.167 227.754 345.713 237.267 357.489 237.267Z" fill="#F2F2F2"/>
<path d="M223.339 287.731C235.115 287.731 244.661 278.218 244.661 266.483C244.661 254.748 235.115 245.235 223.339 245.235C211.564 245.235 202.017 254.748 202.017 266.483C202.017 278.218 211.564 287.731 223.339 287.731Z" fill="#F2F2F2"/>
<path d="M365.484 366.525C377.26 366.525 386.806 357.012 386.806 345.277C386.806 333.542 377.26 324.029 365.484 324.029C353.709 324.029 344.163 333.542 344.163 345.277C344.163 357.012 353.709 366.525 365.484 366.525Z" fill="#F2F2F2"/>
<path d="M518.291 410.791C530.066 410.791 539.612 401.278 539.612 389.543C539.612 377.808 530.066 368.295 518.291 368.295C506.515 368.295 496.969 377.808 496.969 389.543C496.969 401.278 506.515 410.791 518.291 410.791Z" fill="#F2F2F2"/>
<path d="M696.86 401.052C708.636 401.052 718.182 391.539 718.182 379.804C718.182 368.07 708.636 358.557 696.86 358.557C685.085 358.557 675.539 368.07 675.539 379.804C675.539 391.539 685.085 401.052 696.86 401.052Z" fill="#F2F2F2"/>
<path d="M633.477 125.496C645.252 125.496 654.799 115.983 654.799 104.248C654.799 92.513 645.252 83 633.477 83C621.701 83 612.155 92.513 612.155 104.248C612.155 115.983 621.701 125.496 633.477 125.496Z" fill="#F2F2F2"/>
<path d="M378.875 60.2052C315.006 60.6548 262.71 112.377 261.803 176.02C261.795 176.608 261.791 180.739 261.791 186.143C261.792 194.066 264.95 201.665 270.572 207.268C276.194 212.87 283.819 216.018 291.77 216.019H291.77C295.711 216.019 299.613 215.244 303.254 213.739C306.895 212.235 310.202 210.03 312.988 207.252C315.773 204.473 317.982 201.174 319.488 197.545C320.993 193.915 321.767 190.025 321.763 186.097C321.76 182.421 321.758 179.877 321.758 179.721C321.756 169.885 324.324 160.218 329.208 151.671C334.092 143.124 341.125 135.991 349.614 130.973C358.104 125.956 367.758 123.228 377.627 123.057C387.495 122.885 397.239 125.277 405.899 129.997C414.558 134.716 421.836 141.601 427.016 149.973C432.196 158.346 435.099 167.918 435.441 177.748C435.783 187.578 433.551 197.327 428.964 206.037C424.378 214.747 417.596 222.117 409.284 227.422L409.295 227.434C409.295 227.434 366.626 254.808 353.618 292.36L353.629 292.363C351.341 300.056 350.182 308.038 350.187 316.061C350.187 319.359 350.382 348.217 350.758 371.64C350.89 379.721 354.204 387.428 359.986 393.096C365.769 398.764 373.555 401.94 381.666 401.938H381.666C385.742 401.937 389.777 401.134 393.54 399.574C397.302 398.014 400.719 395.728 403.591 392.847C406.464 389.966 408.737 386.548 410.279 382.789C411.821 379.029 412.602 375.003 412.577 370.942C412.447 349.491 412.376 324.514 412.376 322.701C412.376 299.643 434.697 276.669 453.033 261.687C474.146 244.434 489.34 220.924 495.443 194.403C496.793 188.943 497.538 183.351 497.663 177.729C497.663 162.224 494.584 146.872 488.604 132.557C482.624 118.243 473.86 105.25 462.819 94.3254C451.777 83.4011 438.675 74.7622 424.268 68.9063C409.861 63.0504 394.434 60.0932 378.875 60.2052V60.2052Z" fill="#0094FF"/>
<path d="M558.319 241.69C573.038 241.69 584.971 229.799 584.971 215.13C584.971 200.462 573.038 188.571 558.319 188.571C543.599 188.571 531.666 200.462 531.666 215.13C531.666 229.799 543.599 241.69 558.319 241.69Z" fill="#2F2E41"/>
<path d="M509.068 515.374H498.177L492.995 473.508H509.071L509.068 515.374Z" fill="#A0616A"/>
<path d="M490.397 512.272H511.402V525.452H477.171C477.171 523.721 477.513 522.007 478.178 520.408C478.843 518.809 479.817 517.356 481.045 516.132C482.273 514.908 483.731 513.938 485.336 513.275C486.94 512.613 488.66 512.272 490.397 512.272Z" fill="#2F2E41"/>
<path d="M593.467 515.374H582.576L577.394 473.508H593.47L593.467 515.374Z" fill="#A0616A"/>
<path d="M574.796 512.272H595.801V525.452H561.57C561.57 523.721 561.912 522.007 562.577 520.408C563.241 518.809 564.216 517.356 565.444 516.132C566.672 514.908 568.13 513.938 569.734 513.275C571.339 512.613 573.059 512.272 574.796 512.272V512.272Z" fill="#2F2E41"/>
<path d="M554.268 241.845C566.319 241.845 576.089 232.11 576.089 220.101C576.089 208.092 566.319 198.356 554.268 198.356C542.217 198.356 532.448 208.092 532.448 220.101C532.448 232.11 542.217 241.845 554.268 241.845Z" fill="#A0616A"/>
<path d="M567.274 311.994L577.037 289.639C579.409 284.395 580.088 278.547 578.982 272.902C577.876 267.256 575.039 262.092 570.863 258.122C570.005 257.277 569.094 256.487 568.135 255.758C563.318 252.002 557.381 249.955 551.265 249.941C547.152 249.957 543.092 250.857 539.36 252.58C539.04 252.721 538.729 252.872 538.409 253.022C537.796 253.315 537.193 253.633 536.606 253.961C532.781 256.149 529.526 259.203 527.104 262.875C524.681 266.547 523.158 270.736 522.658 275.102L518.349 311.082C517.265 313.906 478.602 415.896 492.124 493.76C492.268 494.591 492.674 495.355 493.285 495.94C493.896 496.524 494.678 496.899 495.517 497.009L509.226 498.868C510.226 499.005 511.242 498.758 512.068 498.178C512.894 497.598 513.468 496.728 513.676 495.743L536.677 386.485C536.821 385.806 537.188 385.195 537.721 384.749C538.254 384.303 538.922 384.047 539.618 384.024C540.313 384 540.997 384.21 541.559 384.619C542.121 385.029 542.529 385.614 542.718 386.281L575.216 501.179C575.448 502.014 575.948 502.75 576.639 503.274C577.331 503.799 578.176 504.083 579.045 504.083C579.305 504.081 579.563 504.058 579.818 504.012L596.564 500.798C597.538 500.617 598.409 500.08 599.005 499.292C599.602 498.504 599.882 497.523 599.79 496.54C597.329 469.192 584.251 332.206 567.274 311.994Z" fill="#2F2E41"/>
<path d="M469.47 238.197C469.318 239.489 469.453 240.8 469.865 242.035C470.276 243.27 470.955 244.4 471.852 245.346C472.749 246.291 473.844 247.03 475.058 247.508C476.273 247.987 477.578 248.194 478.882 248.115L491.078 277.324L500.305 263.695L487.308 238.047C487.03 235.874 485.962 233.877 484.306 232.435C482.65 230.994 480.521 230.208 478.322 230.226C476.123 230.245 474.008 231.066 472.376 232.535C470.745 234.004 469.71 236.019 469.469 238.197L469.47 238.197Z" fill="#A0616A"/>
<path d="M553.058 341.405C554.355 341.25 555.602 340.814 556.712 340.128C557.821 339.441 558.766 338.52 559.48 337.43C560.194 336.34 560.659 335.108 560.843 333.819C561.027 332.53 560.925 331.217 560.545 329.972L586.207 311.346L570.757 305.581L548.756 324.152C546.7 324.928 545 326.428 543.979 328.369C542.958 330.31 542.688 332.556 543.218 334.683C543.748 336.809 545.043 338.668 546.856 339.907C548.67 341.146 550.877 341.679 553.058 341.405V341.405Z" fill="#A0616A"/>
<path d="M511.225 296.797C510.241 296.796 509.26 296.7 508.295 296.509C505.96 296.067 503.771 295.059 501.92 293.574C500.069 292.089 498.613 290.174 497.68 287.996L480.592 267.232C480.231 266.793 479.968 266.282 479.821 265.734C479.674 265.185 479.646 264.612 479.74 264.052C479.833 263.492 480.046 262.958 480.363 262.487C480.68 262.015 481.095 261.617 481.579 261.318L493.737 253.818C494.186 253.541 494.685 253.356 495.206 253.272C495.727 253.189 496.26 253.209 496.773 253.331C497.287 253.454 497.771 253.677 498.197 253.987C498.624 254.297 498.984 254.688 499.258 255.138L511.302 274.911L534.366 257.924C536.203 256.965 538.324 256.696 540.343 257.166C542.362 257.637 544.144 258.815 545.363 260.487C546.582 262.158 547.157 264.211 546.983 266.27C546.809 268.329 545.897 270.257 544.414 271.701L521.394 292.627C518.689 295.3 515.034 296.798 511.225 296.797Z" fill="#2F2E41"/>
<path d="M573.547 328.025C573.515 328.025 573.484 328.025 573.453 328.024C572.892 328.01 572.341 327.88 571.834 327.64C571.327 327.401 570.877 327.058 570.511 326.634L559.703 314.068C559.335 313.64 559.062 313.139 558.902 312.598C558.743 312.058 558.7 311.489 558.778 310.931C558.855 310.373 559.05 309.837 559.351 309.359C559.651 308.882 560.05 308.473 560.52 308.16L580.76 294.715L562.424 272.747C561.358 270.975 560.967 268.88 561.322 266.845C561.678 264.809 562.756 262.969 564.361 261.66C565.966 260.351 567.989 259.662 570.062 259.717C572.135 259.773 574.118 260.569 575.65 261.962L597.935 283.664C599.689 285.26 601.027 287.257 601.836 289.483C602.645 291.709 602.9 294.097 602.579 296.442C602.258 298.788 601.371 301.021 599.993 302.949C598.615 304.878 596.789 306.444 594.67 307.515L576.456 326.774C576.082 327.169 575.631 327.483 575.131 327.698C574.631 327.914 574.092 328.025 573.547 328.025Z" fill="#2F2E41"/>
<path d="M548.72 281.723C548.547 281.723 548.374 281.712 548.201 281.69C547.449 281.599 546.738 281.295 546.154 280.813C545.57 280.332 545.136 279.693 544.905 278.973L536.783 254.158C536.579 253.531 536.611 252.851 536.871 252.245C537.131 251.639 537.603 251.147 538.199 250.861L538.463 250.737C538.702 250.624 538.938 250.512 539.18 250.404C542.967 248.654 547.09 247.741 551.265 247.728C556.685 247.738 561.983 249.325 566.511 252.293C567.118 252.696 567.542 253.32 567.692 254.031C567.842 254.742 567.705 255.484 567.312 256.095L552.076 279.882C551.718 280.447 551.223 280.912 550.636 281.234C550.049 281.556 549.39 281.724 548.72 281.723V281.723Z" fill="#E6E6E6"/>
<path d="M579.331 203.273C584.148 203.273 588.053 199.382 588.053 194.582C588.053 189.782 584.148 185.891 579.331 185.891C574.515 185.891 570.61 189.782 570.61 194.582C570.61 199.382 574.515 203.273 579.331 203.273Z" fill="#2F2E41"/>
<path d="M549.435 185.029C543.308 185.029 537.433 187.454 533.101 191.771C528.77 196.088 526.336 201.943 526.336 208.048V217.786H538.356L544.104 208.048L545.829 217.786H582.306L572.533 208.048C572.533 201.943 570.1 196.088 565.768 191.771C561.436 187.454 555.561 185.029 549.435 185.029V185.029Z" fill="#2F2E41"/>
<path d="M583.814 188.629C584.778 185.624 586.775 183.054 589.453 181.371C592.131 179.687 595.319 178.999 598.456 179.426C604.013 180.352 608.408 184.804 611.026 189.776C613.644 194.749 614.853 200.314 616.614 205.648C618.374 210.983 620.87 216.346 625.314 219.799C629.757 223.252 636.576 224.189 640.941 220.637C640.442 224.339 638.788 227.791 636.213 230.505C633.638 233.219 630.271 235.058 626.59 235.76C622.909 236.463 619.099 235.995 615.699 234.422C612.3 232.849 609.482 230.251 607.646 226.995C605.343 222.912 604.748 218.126 604.065 213.492C603.383 208.859 602.495 204.064 599.746 200.265C596.997 196.467 591.85 193.986 587.483 195.716L583.814 188.629Z" fill="#2F2E41"/>
<path d="M300.234 201.888C292.283 201.887 284.659 198.739 279.037 193.136C273.415 187.534 270.256 179.935 270.256 172.012C270.255 166.608 270.259 162.476 270.267 161.889C270.52 143.38 275.198 125.197 283.912 108.85C269.594 128.383 261.722 151.867 261.383 176.054C261.375 176.642 261.371 180.773 261.372 186.177C261.372 194.1 264.531 201.699 270.153 207.302C275.774 212.904 283.399 216.052 291.35 216.053V216.053C297.884 216.051 304.238 213.923 309.447 209.994C314.656 206.064 318.436 200.548 320.213 194.283C314.723 199.188 307.607 201.897 300.234 201.888V201.888Z" fill="#3F3D56"/>
<path d="M380.907 123.157C390.099 123.594 399.046 126.248 406.982 130.891C414.918 135.534 421.604 142.026 426.467 149.811C431.33 157.596 434.225 166.441 434.902 175.587C435.579 184.732 434.019 193.904 430.355 202.316C435.654 196.114 439.549 188.847 441.775 181.009C444 173.17 444.503 164.946 443.249 156.897C441.996 148.848 439.016 141.162 434.511 134.365C430.007 127.567 424.085 121.817 417.149 117.507C410.213 113.197 402.426 110.428 394.319 109.389C386.211 108.35 377.974 109.066 370.17 111.486C362.365 113.907 355.176 117.976 349.092 123.417C343.009 128.858 338.174 135.541 334.917 143.013C340.546 136.415 347.619 131.193 355.593 127.75C363.567 124.308 372.227 122.736 380.907 123.157V123.157Z" fill="#3F3D56"/>
<path d="M390.13 387.806C382.02 387.808 374.233 384.632 368.451 378.964C362.669 373.296 359.354 365.59 359.223 357.508C358.847 334.086 358.652 305.228 358.652 301.93C358.647 293.906 359.806 285.924 362.093 278.231L362.082 278.229C363.433 274.367 365.064 270.609 366.963 266.984C361.134 274.726 356.495 283.29 353.198 292.394L353.209 292.397C350.922 300.089 349.762 308.072 349.768 316.095C349.768 319.393 349.962 348.251 350.339 371.674C350.47 379.755 353.785 387.461 359.567 393.129C365.349 398.798 373.135 401.973 381.246 401.971V401.971C387.934 401.97 394.441 399.808 399.791 395.81C405.141 391.812 409.046 386.193 410.921 379.795C405.238 384.959 397.821 387.817 390.13 387.806V387.806Z" fill="#3F3D56"/>
<path d="M112.42 515.777L123.311 515.776L128.493 473.911L112.417 473.912L112.42 515.777Z" fill="#FFB8B8"/>
<path d="M144.317 525.854L110.086 525.856L110.085 512.676L131.091 512.675C134.599 512.675 137.963 514.064 140.443 516.535C142.923 519.007 144.317 522.359 144.317 525.854V525.854L144.317 525.854Z" fill="#2F2E41"/>
<path d="M73.33 515.777L84.221 515.776L89.4031 473.911L73.3274 473.912L73.33 515.777Z" fill="#FFB8B8"/>
<path d="M105.227 525.854L70.9962 525.856L70.9956 512.676L92.0009 512.675C95.5086 512.675 98.8726 514.064 101.353 516.535C103.833 519.007 105.227 522.359 105.227 525.854V525.854L105.227 525.854Z" fill="#2F2E41"/>
<path d="M82.8478 502.901L72.2091 502.344C71.6605 502.315 71.1231 502.178 70.6281 501.941C70.133 501.704 69.69 501.371 69.3249 500.962C68.9598 500.553 68.6798 500.076 68.501 499.558C68.3223 499.04 68.2484 498.493 68.2837 497.946L80.9992 357.652L139.555 373.398L145.197 371.865L127.554 496.062C127.404 496.997 126.938 497.852 126.235 498.487C125.531 499.122 124.63 499.498 123.683 499.555L112.214 500.087C111.641 500.119 111.067 500.032 110.529 499.831C109.991 499.631 109.501 499.321 109.089 498.922C108.677 498.523 108.353 498.043 108.137 497.513C107.921 496.983 107.817 496.414 107.833 495.841L109.911 421.3C109.921 420.956 109.801 420.62 109.574 420.359C109.348 420.098 109.032 419.931 108.688 419.891C108.344 419.851 107.998 419.941 107.717 420.143C107.437 420.345 107.242 420.644 107.172 420.981L87.1321 499.609C86.9429 500.542 86.4349 501.381 85.6947 501.982C84.9545 502.584 84.0279 502.911 83.0728 502.908C82.9983 502.908 82.9233 502.906 82.8478 502.901Z" fill="#2F2E41"/>
<path d="M114.375 242.862C126.426 242.862 136.196 233.127 136.196 221.118C136.196 209.109 126.426 199.373 114.375 199.373C102.324 199.373 92.5552 209.109 92.5552 221.118C92.5552 233.127 102.324 242.862 114.375 242.862Z" fill="#FFB8B8"/>
<path d="M78.0463 285.002L80.4455 336.587L81.3128 355.355C81.3473 356.172 81.6257 356.96 82.1122 357.619C82.5988 358.277 83.2714 358.776 84.044 359.052L140.312 379.364C140.767 379.532 141.248 379.616 141.733 379.612C142.287 379.615 142.837 379.506 143.348 379.293C143.859 379.079 144.322 378.765 144.708 378.37C145.095 377.974 145.398 377.505 145.599 376.99C145.799 376.475 145.894 375.925 145.876 375.373L143.57 282.62C143.418 275.01 140.607 267.692 135.621 261.926C130.635 256.16 123.787 252.308 116.257 251.034C115.712 250.952 115.159 250.869 114.605 250.795C109.936 250.218 105.196 250.667 100.72 252.111C96.243 253.555 92.1385 255.959 88.6946 259.154C85.1286 262.422 82.3265 266.431 80.4865 270.898C78.6464 275.364 77.8134 280.179 78.0462 285.002L78.0463 285.002Z" fill="#CCCCCC"/>
<path d="M167.191 369.071C165.861 368.659 164.645 367.943 163.641 366.98C162.637 366.017 161.873 364.834 161.409 363.524C160.946 362.215 160.796 360.815 160.972 359.438C161.148 358.06 161.644 356.743 162.422 355.59L143.34 330.305L159.806 329.29L175.402 353.456C177.071 354.743 178.233 356.574 178.683 358.629C179.134 360.683 178.844 362.83 177.864 364.693C176.885 366.556 175.278 368.015 173.327 368.816C171.375 369.616 169.203 369.707 167.191 369.071H167.191Z" fill="#FFB8B8"/>
<path d="M153.775 351.015C153.27 350.81 152.81 350.508 152.423 350.125C152.035 349.742 151.728 349.287 151.518 348.785L122.771 280.531C122.206 279.195 121.912 277.761 121.905 276.311C121.897 274.862 122.176 273.425 122.726 272.082C123.276 270.74 124.086 269.519 125.109 268.489C126.133 267.459 127.35 266.64 128.692 266.079C130.033 265.518 131.472 265.226 132.927 265.219C134.382 265.213 135.824 265.492 137.17 266.041C138.517 266.59 139.741 267.398 140.774 268.419C141.807 269.44 142.628 270.654 143.19 271.991L171.937 340.245C172.362 341.257 172.367 342.396 171.95 343.411C171.534 344.427 170.73 345.236 169.716 345.662L156.953 350.999C156.451 351.211 155.911 351.322 155.366 351.324C154.82 351.327 154.28 351.222 153.775 351.015L153.775 351.015Z" fill="#CCCCCC"/>
<path d="M107.36 348.607L134.971 295.922C135.503 294.909 136.418 294.148 137.513 293.805C138.608 293.463 139.794 293.567 140.812 294.096L180.89 314.954C181.906 315.485 182.67 316.395 183.014 317.487C183.358 318.578 183.253 319.761 182.723 320.775L155.112 373.46C154.579 374.473 153.665 375.234 152.57 375.577C151.475 375.919 150.288 375.815 149.271 375.286L109.193 354.428C108.176 353.897 107.412 352.987 107.069 351.895C106.725 350.804 106.83 349.621 107.36 348.607Z" fill="#3F3D56"/>
<path d="M125.877 324.537C125.386 323.237 124.597 322.07 123.573 321.128C122.549 320.186 121.319 319.496 119.979 319.112C118.64 318.729 117.229 318.662 115.86 318.919C114.49 319.175 113.2 319.746 112.092 320.588L85.6361 303.099L85.5912 319.539L110.721 333.627C112.108 335.211 114.011 336.259 116.095 336.586C118.18 336.912 120.314 336.497 122.122 335.412C123.93 334.328 125.297 332.644 125.984 330.655C126.671 328.666 126.633 326.5 125.877 324.537V324.537Z" fill="#FFB8B8"/>
<path d="M92.4284 328.234L70.8074 311.167C68.4685 310.384 66.355 309.048 64.6485 307.272C62.942 305.496 61.6934 303.334 61.0099 300.972C60.3263 298.609 60.2283 296.117 60.7242 293.708C61.2202 291.3 62.2952 289.047 63.857 287.143L83.4883 261.505C84.8525 259.844 86.7711 258.727 88.8933 258.359C91.0156 257.992 93.1998 258.397 95.0466 259.502C96.8934 260.607 98.2795 262.338 98.9515 264.377C99.6234 266.417 99.5364 268.629 98.7064 270.61L83.1736 295.93L106 306.72C106.531 306.97 107.002 307.331 107.383 307.776C107.764 308.222 108.045 308.744 108.209 309.306C108.373 309.868 108.415 310.459 108.332 311.038C108.25 311.618 108.045 312.174 107.731 312.669L98.5167 327.2C98.2053 327.691 97.7939 328.111 97.3092 328.433C96.8246 328.755 96.2775 328.971 95.7034 329.069C95.6806 329.073 95.6577 329.077 95.6347 329.08C95.0706 329.165 94.495 329.134 93.9435 328.988C93.392 328.843 92.8764 328.586 92.4284 328.234V328.234Z" fill="#CCCCCC"/>
<path d="M97.8874 235.678C97.7938 235.405 97.7641 235.115 97.8006 234.829C97.8371 234.542 97.9389 234.268 98.0981 234.028C98.2573 233.787 98.4697 233.585 98.719 233.439C98.9684 233.292 99.248 233.205 99.5366 233.183C100.128 233.215 100.706 233.366 101.237 233.627C101.768 233.888 102.24 234.253 102.625 234.701C103.415 235.608 104.334 236.395 105.353 237.036C106.409 237.566 107.84 237.49 108.442 236.479C109.007 235.53 108.62 234.259 108.278 233.156C107.407 230.351 106.92 227.442 106.83 224.507C106.731 221.231 107.195 217.812 109.015 215.257C111.364 211.959 115.564 210.707 119.539 210.798C123.513 210.889 127.424 212.111 131.361 212.884C132.72 213.151 134.318 213.288 135.227 212.238C136.193 211.122 135.838 209.315 135.427 207.808C134.36 203.897 133.228 199.854 130.75 196.695C128.069 193.413 124.241 191.265 120.035 190.684C115.997 190.185 111.898 190.649 108.075 192.037C101.846 193.993 96.365 197.798 92.365 202.943C88.2417 208.414 86.4599 215.289 87.4094 222.066C88.337 227.968 91.4754 233.3 96.192 236.988L97.8874 235.678Z" fill="#2F2E41"/>
<path d="M374.249 515.95C368.443 513.43 363.305 509.601 359.239 504.763C355.174 499.926 352.292 494.213 350.821 488.075C349.35 481.937 349.331 475.543 350.765 469.397C352.199 463.251 355.047 457.521 359.083 452.659C354.403 456.065 350.503 460.423 347.643 465.445C344.782 470.467 343.026 476.038 342.491 481.788C341.956 487.539 342.654 493.336 344.539 498.797C346.425 504.258 349.454 509.256 353.426 513.461C357.398 517.666 362.223 520.981 367.579 523.186C372.935 525.391 378.7 526.435 384.492 526.25C390.284 526.064 395.97 524.653 401.173 522.111C406.376 519.568 410.977 515.952 414.67 511.501C408.91 515.697 402.147 518.316 395.055 519.096C387.963 519.877 380.789 518.792 374.249 515.95V515.95Z" fill="#3F3D56"/>
</svg>
