<svg width="413" height="258" viewBox="0 0 413 258" fill="none" xmlns="http://www.w3.org/2000/svg">
<g filter="url(#filter0_d_27_282)">
<path d="M31.0999 225.754C33.0415 226.437 35.1263 226.607 37.1532 226.25C39.1802 225.893 41.081 225.02 42.6726 223.716C46.7259 220.313 47.9971 214.71 49.0308 209.52L52.0894 194.169L45.6861 198.578C41.081 201.749 36.3724 205.022 33.1842 209.614C29.9959 214.207 28.6049 220.476 31.1659 225.446" fill="#E6E6E6"/>
<path d="M32.0886 245.408C31.2826 239.536 30.4534 233.588 31.0201 227.654C31.5223 222.383 33.1304 217.236 36.4041 213.014C38.1418 210.778 40.2563 208.862 42.6524 207.352C43.2771 206.958 43.8522 207.948 43.2302 208.341C39.0841 210.961 35.8771 214.83 34.0718 219.39C32.0779 224.461 31.7578 229.989 32.1012 235.376C32.3088 238.634 32.7499 241.87 33.193 245.103C33.2279 245.249 33.2061 245.403 33.1319 245.534C33.0576 245.664 32.9365 245.762 32.793 245.807C32.6467 245.846 32.4907 245.826 32.3589 245.751C32.2271 245.677 32.1301 245.553 32.089 245.407L32.0886 245.408Z" fill="#F2F2F2"/>
<path d="M37.8897 235.986C38.7223 237.252 39.8669 238.282 41.2133 238.977C42.5596 239.672 44.0623 240.009 45.5766 239.955C49.4689 239.77 52.7125 237.054 55.6321 234.476L64.2695 226.849L58.5532 226.576C54.4422 226.379 50.2252 226.194 46.3096 227.463C42.3941 228.733 38.783 231.782 38.0671 235.835" fill="#E6E6E6"/>
<path d="M29.8103 248.783C33.6904 241.918 38.1906 234.288 46.2324 231.849C48.4682 231.173 50.8126 230.931 53.1393 231.136C53.8728 231.199 53.6896 232.329 52.9577 232.266C49.0574 231.942 45.1647 232.972 41.9349 235.182C38.8267 237.298 36.4066 240.239 34.3586 243.358C33.1039 245.269 31.9801 247.26 30.8563 249.249C30.4972 249.885 29.447 249.426 29.8103 248.783Z" fill="#F2F2F2"/>
<path d="M159.737 81.7323V147.102H310.72V181.81H350.636V81.7323H159.737Z" fill="white"/>
<path d="M352.373 80V183.548H310.72V180.078H348.904V83.4694H161.469V147.102H158V80H352.373Z" fill="#E5E5E5"/>
<path d="M189.616 118.776H310.624V123.048H189.616V118.776Z" fill="#E5E5E5"/>
<path d="M189.616 129.882H310.624V134.154H189.616V129.882Z" fill="#E5E5E5"/>
<path d="M189.616 140.988H310.624V145.26H189.616V140.988Z" fill="#E5E5E5"/>
<path d="M317.969 123.861C316.429 123.861 315.181 122.613 315.181 121.073C315.181 119.534 316.429 118.285 317.969 118.285C319.509 118.285 320.757 119.534 320.757 121.073C320.757 122.613 319.509 123.861 317.969 123.861Z" fill="#E5E5E5"/>
<path d="M200.737 15.7322V81.1015H351.72V115.81H391.636V15.7322H200.737Z" fill="white"/>
<path d="M393.373 14V117.548H351.72V114.078H389.904V17.4694H202.469V81.1015H199V14H393.373Z" fill="#F1F1F1"/>
<path d="M230.616 52.776H351.624V57.0476H230.616V52.776Z" fill="#F1F1F1"/>
<path d="M230.616 63.8821H351.624V68.1537H230.616V63.8821Z" fill="#F1F1F1"/>
<path d="M230.616 74.9883H351.624V79.2599H230.616V74.9883Z" fill="#F1F1F1"/>
<path d="M358.969 57.8607C357.429 57.8607 356.181 56.6126 356.181 55.073C356.181 53.5334 357.429 52.2853 358.969 52.2853C360.509 52.2853 361.757 53.5334 361.757 55.073C361.757 56.6126 360.509 57.8607 358.969 57.8607Z" fill="#F1F1F1"/>
<path d="M118.273 148.187H309.176V248.265H118.273V148.187Z" fill="white"/>
<path d="M116.538 250H310.911V146.451H116.538V250ZM307.44 246.529H120.009V149.922H307.44V246.529Z" fill="#CBCBCB"/>
<path d="M148.364 185.386H269.372V189.658H148.364V185.386Z" fill="#0094FF"/>
<path d="M148.364 196.492H269.372V200.764H148.364V196.492Z" fill="#0094FF"/>
<path d="M148.364 207.598H269.372V211.87H148.364V207.598Z" fill="#0094FF"/>
<path d="M276.717 190.471C275.177 190.471 273.929 189.223 273.929 187.683C273.929 186.144 275.177 184.896 276.717 184.896C278.256 184.896 279.504 186.144 279.504 187.683C279.504 189.223 278.256 190.471 276.717 190.471Z" fill="#0094FF"/>
<path d="M146.413 146.455C146.834 145.861 147.12 145.181 147.251 144.465C147.381 143.748 147.353 143.012 147.168 142.307C146.982 141.603 146.645 140.947 146.179 140.387C145.714 139.827 145.131 139.376 144.472 139.066L130.665 95.8356L121.049 100.831L137.645 141.754C137.196 142.895 137.183 144.161 137.606 145.313C138.029 146.464 138.86 147.419 139.941 147.999C141.021 148.578 142.277 148.741 143.47 148.457C144.663 148.172 145.71 147.46 146.413 146.455V146.455Z" fill="#9F616A"/>
<path d="M135.133 101.814C135.266 101.521 135.333 101.203 135.331 100.882C135.329 100.561 135.258 100.244 135.123 99.9534L130.394 89.7865C129.928 88.2114 128.856 86.8855 127.413 86.0995C125.971 85.3135 124.276 85.1316 122.699 85.5936C121.123 86.0557 119.794 87.1239 119.004 88.5642C118.215 90.0044 118.028 91.6991 118.486 93.2767L120.066 104.414C120.111 104.732 120.225 105.037 120.398 105.307C120.571 105.577 120.801 105.807 121.071 105.98C121.341 106.154 121.646 106.267 121.963 106.312C122.281 106.357 122.605 106.334 122.913 106.242L133.732 103.037C134.04 102.946 134.324 102.79 134.566 102.578C134.808 102.367 135.002 102.106 135.133 101.814Z" fill="#0094FF"/>
<path d="M95.2465 103.529L96.0176 114.328L122.242 123.583L122.627 113.17L95.2465 103.529Z" fill="#9F616A"/>
<path d="M128.798 87.718L120.314 81.5477L106.43 77.6913L94.8609 80.0052L92.9326 98.1304L95.2465 109.7L125.327 116.641L128.412 111.242C128.412 111.242 135.354 104.301 129.955 96.5878L128.798 87.718Z" fill="#0094FF"/>
<path d="M131.883 71.8808V61.7531C131.883 57.4683 130.181 53.3589 127.151 50.3291C124.121 47.2993 120.012 45.5971 115.727 45.5971C111.442 45.5971 107.333 47.2993 104.303 50.3291C101.273 53.3589 99.5706 57.4683 99.5706 61.7531V71.8808C99.5712 72.4562 99.8001 73.0078 100.207 73.4147C100.614 73.8215 101.165 74.0504 101.741 74.051H129.713C130.288 74.0504 130.84 73.8215 131.247 73.4146C131.654 73.0078 131.882 72.4562 131.883 71.8808Z" fill="#2F2E41"/>
<path d="M116.376 73.9514C109.834 73.9514 104.531 68.6482 104.531 62.1064C104.531 55.5646 109.834 50.2614 116.376 50.2614C122.918 50.2614 128.221 55.5646 128.221 62.1064C128.221 68.6482 122.918 73.9514 116.376 73.9514Z" fill="#9F616A"/>
<path d="M128.546 62.0607C128.659 61.9301 128.743 61.7766 128.792 61.6108C128.841 61.4449 128.853 61.2706 128.829 61.0995L127.425 51.3288C127.398 51.13 127.321 50.9413 127.202 50.7797C127.082 50.6181 126.925 50.4887 126.743 50.4034C119.581 47.0515 112.319 47.0473 105.157 50.3906C104.967 50.4807 104.803 50.6185 104.682 50.7907C104.562 50.9628 104.488 51.1633 104.468 51.3726L103.531 61.156C103.515 61.3233 103.534 61.492 103.587 61.6515C103.64 61.8109 103.726 61.9575 103.839 62.0819C103.952 62.2062 104.09 62.3056 104.243 62.3735C104.397 62.4415 104.563 62.4766 104.731 62.4766H107.107C107.336 62.476 107.56 62.4103 107.754 62.2872C107.947 62.164 108.102 61.9885 108.199 61.7809L109.224 59.5844C109.291 59.4421 109.402 59.3253 109.54 59.2516C109.679 59.1778 109.837 59.1512 109.992 59.1756C110.147 59.2 110.29 59.2741 110.4 59.3869C110.509 59.4996 110.578 59.6448 110.598 59.8005L110.8 61.4202C110.837 61.7117 110.979 61.9798 111.199 62.1742C111.419 62.3687 111.703 62.4762 111.997 62.4766H127.635C127.808 62.4766 127.979 62.4395 128.136 62.3677C128.293 62.296 128.433 62.1913 128.546 62.0607Z" fill="#2F2E41"/>
<path d="M77.1265 141.411C77.836 141.246 78.5008 140.928 79.074 140.479C79.6472 140.029 80.1149 139.459 80.4441 138.81C80.7733 138.16 80.956 137.446 80.9794 136.718C81.0027 135.99 80.8662 135.265 80.5794 134.596L98.9475 93.0979L88.44 90.4514L73.6888 132.075C72.5959 132.631 71.745 133.569 71.2975 134.711C70.85 135.853 70.8369 137.119 71.2606 138.27C71.6843 139.421 72.5155 140.376 73.5966 140.955C74.6778 141.534 75.9337 141.696 77.1265 141.411Z" fill="#9F616A"/>
<path d="M98.3217 100.535C98.6147 100.404 98.876 100.211 99.0878 99.9697C99.2995 99.7284 99.4567 99.4442 99.5486 99.1366L102.76 88.3935C103.457 86.9059 103.535 85.2028 102.978 83.6574C102.421 82.1121 101.274 80.8508 99.7882 80.1501C98.3025 79.4493 96.5995 79.3663 95.0527 79.9193C93.5058 80.4723 92.2415 81.6161 91.5367 83.0999L85.3261 92.4793C85.1488 92.747 85.0314 93.0498 84.9817 93.3669C84.932 93.6841 84.9513 94.0083 85.0382 94.3173C85.1251 94.6264 85.2776 94.9131 85.4853 95.1579C85.693 95.4027 85.951 95.5999 86.2417 95.736L96.4611 100.52C96.7519 100.656 97.0686 100.728 97.3897 100.73C97.7108 100.733 98.0287 100.666 98.3217 100.535Z" fill="#0094FF"/>
<path d="M96.566 242.688L103.251 242.688L106.432 216.901L96.565 216.902L96.566 242.688Z" fill="#9F616A"/>
<path d="M94.8611 249.169L116.418 249.168V248.895C116.418 246.67 115.534 244.536 113.96 242.962C112.387 241.389 110.253 240.505 108.027 240.505H108.027L94.8607 240.505L94.8611 249.169Z" fill="#2F2E41"/>
<path d="M101.647 188.243L106.205 193.134L127.239 177.881L120.512 170.663L101.647 188.243Z" fill="#9F616A"/>
<path d="M95.7433 191.413L110.44 207.184L110.639 206.998C112.267 205.481 113.226 203.38 113.304 201.156C113.383 198.932 112.575 196.768 111.058 195.14L111.057 195.139L102.081 185.507L95.7433 191.413Z" fill="#2F2E41"/>
<path d="M94.4751 114.327L92.3369 116.466C81.6417 127.161 79.0086 141.99 80.293 157.061C80.4729 159.295 80.8307 161.512 81.363 163.69C85.2195 179.115 82.9056 228.478 90.6186 231.563L92.1612 236.962L107.201 236.406L106.816 231.563C106.816 231.563 110.287 224.236 107.973 219.608C105.659 214.98 100.645 180.658 100.645 180.658L103.345 152.506L123.399 162.533C123.399 162.533 112.986 168.317 113.757 172.174C113.757 172.174 107.587 173.716 109.13 177.573L106.816 182.201L112.215 190.685C112.215 190.685 148.466 169.089 145.381 158.291C142.295 147.493 123.013 139.78 123.013 139.78L121.47 128.211L122.8 121.907L95.8182 111.535L94.4751 114.327Z" fill="#2F2E41"/>
<path d="M4.49486 250H224.243C224.374 250 224.5 249.948 224.593 249.855C224.686 249.762 224.738 249.636 224.738 249.505C224.738 249.374 224.686 249.248 224.593 249.155C224.5 249.062 224.374 249.01 224.243 249.01H4.49486C4.36359 249.01 4.23767 249.062 4.14487 249.155C4.05205 249.248 3.99992 249.374 3.99992 249.505C3.99992 249.636 4.05205 249.762 4.14487 249.855C4.23767 249.948 4.36359 250 4.49486 250Z" fill="#CBCBCB"/>
</g>
<defs>
<filter id="filter0_d_27_282" x="0" y="0" width="417" height="258" filterUnits="userSpaceOnUse" color-interpolation-filters="sRGB">
<feFlood flood-opacity="0" result="BackgroundImageFix"/>
<feColorMatrix in="SourceAlpha" type="matrix" values="0 0 0 0 0 0 0 0 0 0 0 0 0 0 0 0 0 0 127 0" result="hardAlpha"/>
<feOffset dy="4"/>
<feGaussianBlur stdDeviation="2"/>
<feComposite in2="hardAlpha" operator="out"/>
<feColorMatrix type="matrix" values="0 0 0 0 0 0 0 0 0 0 0 0 0 0 0 0 0 0 0.25 0"/>
<feBlend mode="normal" in2="BackgroundImageFix" result="effect1_dropShadow_27_282"/>
<feBlend mode="normal" in="SourceGraphic" in2="effect1_dropShadow_27_282" result="shape"/>
</filter>
</defs>
</svg>
