<svg width="32" height="31" viewBox="0 0 32 31" fill="none" xmlns="http://www.w3.org/2000/svg">
<g filter="url(#filter0_d_3:93)">
<path d="M21.1941 14.6296H20.136L19.761 14.283C21.3682 12.486 22.1986 10.0344 21.7433 7.42875C21.1138 3.86043 18.0064 1.01092 14.2562 0.574503C8.59061 -0.0929516 3.82244 4.47654 4.51892 9.90603C4.9743 13.5 7.94771 16.4779 11.6712 17.0812C14.3901 17.5176 16.9483 16.7218 18.8234 15.1815L19.1851 15.5409V16.5549L24.8908 22.0101C25.4399 22.5363 26.3239 22.5363 26.8731 22.0101L26.8865 21.9972C27.4356 21.471 27.4356 20.6238 26.8865 20.0975L21.1941 14.6296ZM13.1579 14.6296C9.82284 14.6296 7.1307 12.0496 7.1307 8.8535C7.1307 5.65742 9.82284 3.07746 13.1579 3.07746C16.4929 3.07746 19.1851 5.65742 19.1851 8.8535C19.1851 12.0496 16.4929 14.6296 13.1579 14.6296Z" fill="white"/>
</g>
<defs>
<filter id="filter0_d_3:93" x="0.451111" y="0.509521" width="30.8472" height="29.8952" filterUnits="userSpaceOnUse" color-interpolation-filters="sRGB">
<feFlood flood-opacity="0" result="BackgroundImageFix"/>
<feColorMatrix in="SourceAlpha" type="matrix" values="0 0 0 0 0 0 0 0 0 0 0 0 0 0 0 0 0 0 127 0" result="hardAlpha"/>
<feOffset dy="4"/>
<feGaussianBlur stdDeviation="2"/>
<feComposite in2="hardAlpha" operator="out"/>
<feColorMatrix type="matrix" values="0 0 0 0 0 0 0 0 0 0 0 0 0 0 0 0 0 0 0.33 0"/>
<feBlend mode="normal" in2="BackgroundImageFix" result="effect1_dropShadow_3:93"/>
<feBlend mode="normal" in="SourceGraphic" in2="effect1_dropShadow_3:93" result="shape"/>
</filter>
</defs>
</svg>
